<svg xmlns="http://www.w3.org/2000/svg" viewBox="0 0 98.94 69.58">
  <g id="Layer_2" data-name="Layer 2">
    <g id="Working_copies_copy" data-name="Working copies copy">
      <g id="Sword_KP_Black_copy_2" data-name="Sword KP Black copy 2">
        <g>
          <path d="M40.6,35c4.83-4.45,13.73-14.05,16.46-17a15.56,15.56,0,0,1,4,.47c1.41.47,1.56,1-.62,3.35C57.21,25.19,52.06,30,47.7,34.32c3,4,12.48,15,16.14,18.18l-.07.23a11.4,11.4,0,0,1-4.84.86,5.76,5.76,0,0,1-4.76-2.42c-3-3.2-10.61-11.31-13.57-15.6V51.09c0,1.56-.47,1.95-1.87,2.11a43.85,43.85,0,0,1-4.92.23c.16-3.12.24-7.72.24-14.27V9.75a85.71,85.71,0,0,0-.32-8.66A19.92,19.92,0,0,1,39.51,0c.78,0,1.09.39,1.09,5.07Z" fill="#fff"/>
          <path d="M73.44,67.32c0,1.32-.16,1.79-1.56,2a40.4,40.4,0,0,1-5.31.31c.16-2.19.24-6.63.24-13.65V25.43c0-2.58-.47-4-1.25-4.45v-.39a6,6,0,0,1,4.37-2.65c1.71,0,3,2.11,3.12,5.23,4.68-3.59,8.5-5.23,12-5.23,6.94,0,13.88,5.3,13.88,16.54,0,11.46-8.34,19.42-18.41,19.42A13.4,13.4,0,0,1,73.44,52Zm0-19.66A14.69,14.69,0,0,0,80,49.38c4.76,0,11.93-3.36,11.93-14.12,0-7.1-4.13-11.86-9.59-11.86-3.67,0-7.41,2.42-8.89,3.75Z" fill="#fff"/>
        </g>
        <g id="Sword">
          <path d="M17.45,29.7l.22-13c0-.41,0-1.41-.78-1.66a1,1,0,0,0-.41-.07h-.17a14.15,14.15,0,0,0-5,1.5l-.17.15V29.7h-9l-.12.06c-1.34.77-1.95,3.5-2,4.4l0,.54H11.11c-.13,4.24,0,18.95.17,27.46.07,3.08,1.11,7.35,2.89,7.35,1.55,0,2.89-4.19,3-7.65.23-8.66.23-21.65.23-27.08,2.18,0,8.5-.08,9.53-.32S29,33.63,30,30.35l.22-.65ZM16.13,61.83c-.07,3.54-1.44,6.55-2,6.68s-1.81-2.76-1.89-6.37c-.1-4.1-.17-9.64-.2-14.74a9.75,9.75,0,0,0,4.26-5.15C16.33,48.35,16.28,56.06,16.13,61.83Z" fill="#fff"/>
        </g>
      </g>
    </g>
  </g>
</svg>
